<svg width="150" height="150" viewBox="0 0 150 150" fill="none" xmlns="http://www.w3.org/2000/svg">
<rect width="150" height="150" rx="75" fill="#FFD8D6"/>
<rect x="42.4966" y="40.0001" width="64" height="67" fill="#FCFCFC"/>
<path d="M74.9951 15.0001C41.9351 15.0001 14.9951 41.9401 14.9951 75.0001C14.9951 108.06 41.9351 135 74.9951 135C108.055 135 134.995 108.06 134.995 75.0001C134.995 41.9401 108.055 15.0001 74.9951 15.0001ZM95.1551 88.8001C96.8951 90.5401 96.8951 93.4201 95.1551 95.1601C94.2551 96.0601 93.1151 96.4801 91.9751 96.4801C90.8351 96.4801 89.6951 96.0601 88.7951 95.1601L74.9951 81.3601L61.1951 95.1601C60.2951 96.0601 59.1551 96.4801 58.0151 96.4801C56.8751 96.4801 55.7351 96.0601 54.8351 95.1601C53.0951 93.4201 53.0951 90.5401 54.8351 88.8001L68.6351 75.0001L54.8351 61.2001C53.0951 59.4601 53.0951 56.5801 54.8351 54.8401C56.5751 53.1001 59.4551 53.1001 61.1951 54.8401L74.9951 68.6401L88.7951 54.8401C90.5351 53.1001 93.4151 53.1001 95.1551 54.8401C96.8951 56.5801 96.8951 59.4601 95.1551 61.2001L81.3551 75.0001L95.1551 88.8001Z" fill="#FF2635"/>
</svg>
